<svg xmlns="http://www.w3.org/2000/svg" width="264" height="60" viewBox="0 0 264 60"><defs><style>.a{fill:#fff;font-size:32px;font-family:Poppins-Bold, Poppins;font-weight:700;}.b{fill:#ecac2e;}</style></defs><g transform="translate(-240 -50)"><text class="a" transform="translate(310 92)"><tspan x="0" y="0">Virtual Tour</tspan></text><path class="b" d="M397.356,354.035v60h60v-60Zm17.323,3.83a11.072,11.072,0,0,1-13.493,13.493V369.9l6.438-1.279-6.438-1.279v-1.436l7.886-1.335-7.886-1.335v-1.321l10.057-1.394-10.057-1.394v-1.261Zm-13.493,17.418A14.915,14.915,0,0,0,418.6,357.865h31.2L437.556,365.4v14l-8.522-5.6L413.939,381.8v28.41H401.186Zm16.583,33.7,6.431-5.487-6.431,1.778v-4.423l6.431-5.487-6.431,1.778v-4.423l6.431-5.487L417.769,389v-4.9l9.245-4.9v31h-9.245Zm13.075-29.405,6.712,4.408v26.223h-6.712Zm10.542,30.631v-1.555l8.557-6.728-8.557,2.842v-4.247l8.557-6.728-8.557,2.842v-4.247l8.557-6.728-8.557,2.842v-4.247l8.557-6.728-8.557,2.842V376.12l8.557-6.728-8.557,2.842v-4.7l12.141-7.464v50.131Z" transform="translate(-157.356 -304.035)"/></g></svg>